<?xml version="1.0" ?><svg xmlns="http://www.w3.org/2000/svg" xmlns:xlink="http://www.w3.org/1999/xlink" version="1.1" viewBox="0 0 512 512" style="enable-background:new 0 0 512 512;" xml:space="preserve"><style type="text/css">
	.st0{fill:#231A15;}
	.st1{fill:#FFE000;}
	.st2{fill:#BCA100;}
	.st3{fill:#FC0000;}
	.st4{fill:#AA0000;}
	.st5{fill:#F94343;}
	.st6{fill:#FFFFFF;}
	.st7{fill:#A58E07;}
	.st8{opacity:0.44;}
	.st9{fill:#756204;}
	.st10{opacity:0.64;}
	.st11{opacity:0.38;}
	.st12{fill:#5D5004;}
	.st13{fill:#B7A100;}
	.st14{fill:#1D4DFC;}
	.st15{fill:#143CAF;}
	.st16{opacity:0.59;}
	.st17{opacity:0.52;}
	.st18{fill:#FF7F1F;}
	.st19{fill:#C4570C;}
	.st20{fill:#B29904;}
	.st21{fill:#87720A;}
	.st22{fill:#DDDDDD;}
	.st23{opacity:0.51;}
	.st24{fill:#878787;}
	.st25{fill:#727272;}
	.st26{opacity:0.33;}
	.st27{opacity:0.46;}
	.st28{fill:#25CBF2;}
	.st29{fill:#0A8FA5;}
	.st30{opacity:0.58;}
	.st31{fill:#04889E;}
	.st32{fill:#035A63;}
	.st33{opacity:0.65;}
	.st34{opacity:0.39;}
	.st35{fill:#AB0000;}
	.st36{fill:#1987A1;}
	.st37{fill:#3F1F0A;}
	.st38{fill:#4DEEFF;}
	.st39{fill:#21B9C1;}
	.st40{fill:#BBF9FF;}
	.st41{fill:#64ACAF;}
	.st42{fill:#089FB7;}
	.st43{opacity:0.47;}
	.st44{opacity:0.42;}
	.st45{fill:#DBF7FC;}
	.st46{fill:#B2E7ED;}
	.st47{fill:#0FA2BA;}
	.st48{opacity:0.54;}
	.st49{fill:#8E7716;}
	.st50{fill:#191401;}
	.st51{fill:#382E02;}
	.st52{fill:#605106;}
	.st53{fill:#AFACA0;}
	.st54{fill:#BC0404;}
	.st55{fill:#750000;}
	.st56{fill:#A08B0D;}
	.st57{fill:#5B4C05;}
	.st58{opacity:0.4;}
	.st59{opacity:0.5;}
	.st60{fill:#FF8383;}
	.st61{fill:#FFF0A6;}
	.st62{fill:#E2C227;}
	.st63{fill:#AA9205;}
	.st64{fill:#FFEA71;}
	.st65{opacity:0.22;}
	.st66{fill:#B19B00;}
	.st67{fill:#1989A4;}
	.st68{fill:#13A0B7;}
	.st69{fill:#C4A805;}
	.st70{fill:#FFF3A9;}
	.st71{fill:#846E03;}
	.st72{fill:#2D2502;}
	.st73{opacity:0.36;}
	.st74{fill:#4DD307;}
	.st75{fill:#328402;}
	.st76{fill:#97FF5A;}
	.st77{fill:#7A6500;}
	.st78{fill:#246001;}
	.st79{fill:#359100;}
	.st80{fill:#968022;}
	.st81{fill:#4F420B;}
	.st82{fill:#FFED83;}
	.st83{fill:#BAA335;}
	.st84{fill:#8D0991;}
	.st85{fill:#4B044F;}
	.st86{fill:#CE15CE;}
	.st87{fill:#897502;}
	.st88{fill:#493D01;}
	.st89{fill:#C9C9C9;}
	.st90{fill:#2D280E;}
	.st91{fill:#378C06;}
	.st92{fill:#183A03;}
	.st93{fill:#94FF55;}
	.st94{fill:#2E7F04;}
	.st95{fill:#63AB39;}
	.st96{fill:#AA5F04;}
	.st97{fill:#633502;}
	.st98{fill:#EF9014;}
	.st99{fill:#A05A07;}
	.st100{fill:#05616B;}
	.st101{fill:#033335;}
	.st102{fill:#0E94AA;}
	.st103{fill:#035D66;}
	.st104{opacity:0.27;}
	.st105{opacity:0.43;}
	.st106{fill:#FFF203;}
	.st107{fill:#FFA300;}
	.st108{fill:#2B3030;}
	.st109{opacity:0.28;}
	.st110{fill:#FCD17A;}
	.st111{fill:#AF853A;}
	.st112{opacity:0.31;}
	.st113{fill:#B641FF;}
	.st114{fill:#700FBC;}
	.st115{fill:#F2D0B1;}
	.st116{fill:#AF835F;}
	.st117{fill:#C17540;}
	.st118{fill:#F2BA94;}
	.st119{fill:#592909;}
	.st120{fill:#2B1204;}
	.st121{fill:#894818;}
	.st122{fill:#512609;}
	.st123{fill:#FF7F15;}
	.st124{fill:#A04A0A;}
	.st125{fill:#B7865E;}
	.st126{fill:#70350E;}
	.st127{fill:#3A1805;}
	.st128{fill:#C1521B;}
	.st129{fill:#FFC7AE;}
	.st130{fill:#FF717F;}
	.st131{fill:#6E2F0F;}
	.st132{fill:#AC8675;}
	.st133{opacity:0.25;}
	.st134{opacity:0.32;}
	.st135{fill:#FFFCC5;}
	.st136{fill:#D1CA78;}
	.st137{fill:#D37733;}
	.st138{fill:#A04F18;}
	.st139{fill:#0ABFBA;}
	.st140{fill:#057F79;}
	.st141{fill:#15F9F9;}
	.st142{fill:#09B2AD;}
	.st143{fill:#B2B2B2;}
	.st144{fill:#FFF755;}
	.st145{fill:#BCB121;}
	.st146{fill:#F90368;}
	.st147{opacity:0.49;}
	.st148{fill:#B50857;}
	.st149{fill:#FF76B4;}
	.st150{fill:#F23091;}
	.st151{fill:#FFF800;}
	.st152{fill:#C9BF05;}
	.st153{fill:#FF8500;}
	.st154{fill:#A35507;}
	.st155{fill:#AA6E50;}
	.st156{fill:#723C25;}
	.st157{fill:#EAD4B9;}
	.st158{fill:#AA8D6F;}
	.st159{fill:#B7A8A5;}
	.st160{fill:#84726F;}
	.st161{fill:#77645F;}
	.st162{fill:#51403C;}
	.st163{fill:#EABBA7;}
	.st164{fill:#BC7F69;}
	.st165{fill:#7C5039;}
	.st166{fill:#442619;}
	.st167{fill:#B7AE04;}
	.st168{fill:#BAB108;}
	.st169{fill:#7A7105;}
	.st170{fill:#352B23;}
	.st171{fill:#050403;}
	.st172{fill:#706255;}
	.st173{fill:#44382E;}
	.st174{fill:#634319;}
	.st175{fill:#35210A;}
	.st176{fill:#2D1C08;}
	.st177{fill:#0A0601;}
	.st178{fill:#9E7443;}
	.st179{fill:#704D2A;}
	.st180{fill:#D8A73A;}
	.st181{fill:#A0741C;}
	.st182{fill:#3F2F28;}
	.st183{fill:#211410;}
	.st184{fill:#FF326C;}
	.st185{fill:#BC0749;}
	.st186{fill:#68390E;}
	.st187{fill:#A5632D;}
	.st188{fill:#3D1E05;}
	.st189{fill:#331A06;}
	.st190{fill:#110801;}
	.st191{fill:#160A02;}
	.st192{fill:#663514;}
	.st193{opacity:0.29;}
	.st194{fill:#FC001F;}
	.st195{fill:#AF021F;}
	.st196{fill:#C48622;}
	.st197{fill:#8C5910;}
	.st198{fill:#846D64;}
	.st199{fill:#513B35;}
	.st200{fill:#5B4842;}
	.st201{fill:#332522;}
	.st202{fill:#47332C;}
	.st203{fill:#543E38;}
	.st204{fill:#1E1412;}
	.st205{fill:#604C43;}
	.st206{fill:#D3896C;}
	.st207{fill:#FF001F;}
	.st208{fill:#AF0824;}
	.st209{fill:#A37462;}
	.st210{fill:#5E3E34;}
	.st211{fill:#874A38;}
	.st212{fill:#4C2218;}
	.st213{fill:#5B2B20;}
	.st214{fill:#210C09;}
	.st215{fill:#99001A;}
	.st216{fill:#A08A07;}
	.st217{fill:#A08904;}
	.st218{fill:#5B4C02;}
	.st219{fill:#CECAB7;}
	.st220{fill:#727068;}
	.st221{fill:#42403A;}
	.st222{fill:#B2B0A6;}
	.st223{fill:#726F62;}
	.st224{fill:#6B4F45;}
	.st225{fill:#3A261F;}
	.st226{fill:#777468;}
	.st227{fill:#474436;}
	.st228{fill:#B78B7D;}
	.st229{fill:#845A4E;}
	.st230{fill:#3A372D;}
	.st231{fill:#43CFFF;}
	.st232{fill:#13A0BC;}
</style><g id="_x30_3"><g><path class="st0" d="M124.7,465.65c-6.37,0-12.1-1.08-17.17-3.23c-19.66-8.35-27.61-34.2-23.65-76.82    c1.91-20.47,6.04-39.73,8.42-49.69c-7.62-5.25-21.33-15.23-35.01-27.83C28.88,281.93,15.19,258.02,16.6,237    c1.56-23.25,24.01-39.63,66.72-48.69c11.63-8.98,29.4-15.9,52.94-20.61c14.46-33.85,41.85-86.56,75.96-98.26    c2.94-1.51,14.46-7.34,27.45-12.75c29.02-12.1,39.22-11.19,44.87-9.05c0.31,0.12,0.62,0.25,0.92,0.39    c21.66,4.89,45.4,27.38,70.6,66.9c13.82,21.68,24.29,42.51,28.89,52.09c8.47,0.7,24.71,2.44,42.13,6.5    c35.38,8.24,57.44,21.74,65.58,40.12c0,0,0,0,0,0c8.74,19.74-2.66,44.06-33.9,72.27c-14.51,13.11-29.8,23.93-38.36,29.67    c2.72,7.95,6.88,21.28,10,36.52c6.91,33.73,5.29,59.46-4.82,76.46c-1.61,2.71-3.62,5.07-6.02,7.06c-0.91,2.11-2.54,3.9-4.7,4.98    c-4,2.01-39.03,19.37-57.57,21.14c-14.84,3.9-36.37,0.1-65.74-11.58c-20.23-8.05-40.07-18.22-54.51-26.17    c-19.65,11.38-36.87,18.35-51.3,20.75C161.38,458.66,140.95,465.65,124.7,465.65z M220.95,87.44c-0.55,0.3-1.14,0.56-1.75,0.75    c-20.57,6.62-45.45,41.07-66.56,92.15c-1.3,3.15-4.12,5.42-7.48,6.02c-23.85,4.28-41.48,10.8-50.97,18.86    c-1.29,1.09-2.83,1.84-4.49,2.18c-19.33,3.91-51.95,13.13-53.15,30.93c-2.04,30.37,51.66,71.46,72.53,84.73    c3.7,2.35,5.44,6.84,4.28,11.07c-10.72,39.42-17.51,101.6,1.98,109.87c11.84,5.03,33.86-1.2,61.98-17.54    c1.12-0.65,2.36-1.08,3.64-1.26c13.13-1.83,30.67-9.21,50.73-21.33c3.08-1.86,6.93-1.93,10.08-0.16    c51.23,28.82,93.73,43.58,110.94,38.51c0.76-0.22,1.54-0.36,2.33-0.4c0.01,0,0.02,0,0.03,0c9.88-0.76,32.02-10.06,46.47-17    c0.9-1.5,2.19-2.77,3.79-3.65c1.36-0.74,2.32-1.65,3.05-2.87c15.32-25.76-1.59-83.21-9.4-103.17c-1.76-4.49-0.06-9.6,4.04-12.14    c0.22-0.14,22.56-14.07,42.5-32.12c22.97-20.78,33.48-38.71,28.84-49.17c-11.31-25.54-75.01-34.15-96.43-35.15    c-3.75-0.18-7.1-2.44-8.65-5.87c-0.12-0.27-12.49-27.45-30.22-55.22c-22.04-34.52-42.95-55.16-58.88-58.13    c-1.01-0.19-1.98-0.53-2.88-1.01C270.66,65.4,244.69,75.09,220.95,87.44z M277.65,66.41L277.65,66.41L277.65,66.41z"/></g><g><g><path class="st7" d="M483.51,217.67c-16.39-37.02-105.11-41.09-105.11-41.09s-49.94-110.4-96.38-119.06     c-0.31-0.21-0.65-0.39-1.04-0.54c-13.45-5.1-64.86,21.68-64.86,21.68l8.71,17.58c-22.55,33.24-37.37,75.51-37.37,75.51     s-108,2.89-110.89,45.91c-2.89,43.02,77.14,93.84,77.14,93.84s-28.93,106.14,7.71,121.71s113.79-47.53,113.79-47.53     s40.07,24.41,78.07,38.24c-4.62,13.17-7.42,28.53,2.3,27.9c16.74-1.09,54.77-20.18,54.77-20.18l-0.24-1.68     c2.84-1.55,5.16-3.69,6.85-6.53c21.21-35.68-8.68-111.93-8.68-111.93S499.9,254.69,483.51,217.67z"/></g><g><path class="st1" d="M137.47,191.76c0,0,39.54-112.82,87.75-114.75c48.21-1.93,103.18,119.57,103.18,119.57     s88.71,4.07,105.11,41.09s-75.21,93.84-75.21,93.84s29.89,76.25,8.68,111.93c-21.21,35.68-141.75-37.75-141.75-37.75     s-77.14,63.09-113.79,47.53c-36.64-15.56-7.71-121.71-7.71-121.71s-80.04-50.82-77.14-93.84S137.47,191.76,137.47,191.76z"/></g><g><path class="st2" d="M251.26,97.26c0,0,48.21,47.25,70.39,110.89c0,0,87.75,3.11,103.18,29.52     c15.43,26.41-77.14,89.41-77.14,89.41s23.14,48.04,19.29,90.39c-3.86,42.36-34.71,33.25-74.25,14.18     c-39.54-19.07-68.46-39.36-68.46-39.36s-47.25,41.36-80.04,51.14c-32.79,9.78-41.46-21.21-41.46-21.21s13.52,9.79,44.85-4.75     c31.33-14.54,77.61-75.82,77.61-75.82s55.93,64.86,93.54,61.14c37.61-3.71-26.04-98.93-26.04-98.93s85.82-23.32,87.75-52.29     c1.93-28.96-93.54-11-93.54-11S284.04,136.8,251.26,97.26z"/></g><g class="st8"><path class="st6" d="M237.76,91.51c0,0-58.82-2.93-82.93,107.96c0,0-102.58-0.45-112.82,30.32s78.11,97.29,78.11,97.29     s-22.18,54-12.54,79.39c9.64,25.39,16.7-35.55,38.24-56.19s20.58-28.98,9.01-41.2c-11.57-12.22-89.68-36.19-85.82-65.19     c3.86-29,114.75-14.1,114.75-14.1S190.51,104.09,237.76,91.51z"/></g><g><path class="st9" d="M280.99,62.55c0,0,27.16-5.79,95.63,120.54c0,0,88.71,4.82,103.18,41.46c0,0,5.79,22.68-70.39,79.32     c0,0,50.14-52.43,30.86-74.07c-19.29-21.64-77.14-40.93-91.61-40.93s0.18,8.08-6.75-33.36     C334.97,114.07,290.15,68.32,280.99,62.55z M403.61,313.26c-9.69,13.7-32.79,18.25-32.79,18.25s2.89,15.5,9.61,53.78     s0,46.36,0,46.36s29.69-1.68,35.71-19.09s-9.64-85.48-9.64-85.48"/></g><g><path class="st6" d="M230.08,123.3c0,7.84-6.66,14.5-14.5,14.5c-7.86,0-14.5-6.64-14.5-14.5c0-7.84,6.66-14.5,14.5-14.5     C223.44,108.8,230.08,115.43,230.08,123.3z M184.72,146.94c-16.73,0-16.76,26,0,26C201.45,172.94,201.48,146.94,184.72,146.94z      M196.29,187.66c-9.01,0-9.02,14,0,14C205.3,201.66,205.32,187.66,196.29,187.66z"/></g><g><path class="st1" d="M327.44,364.37c-17.4,0-17.37-27,0-27C344.84,337.37,344.81,364.37,327.44,364.37z M340.94,374.08     c-14.8,0-14.82,23,0,23C355.73,397.08,355.76,374.08,340.94,374.08z M312.01,414.3c-7.72,0-7.73,12,0,12     C319.73,426.3,319.74,414.3,312.01,414.3z"/></g></g></g></svg>